PathFileType	4	(X/Y/Z)	s04c0302.trc
DataRate	CameraRate	NumFrames	NumMarkers	Units	OrigDataRate	OrigDataStartFrame	OrigNumFrames
200	200	4	50	mm	200	0	2000
Frame#	Time	racr			lacr			c7			jug			rlel			rdr			llel			ldr			s2			lic			ric			lasi			rasi			rpsi			lpsi			rgt			lgt			rth1			rth2			rth3			rth4			rlfc			rmfc			rsh1			rsh2			rsh3			rsh4			rlmal			rmmal			rcal			rtoe			rmt5			lth1			lth2			lth4			lth3			llfc			lmfc			lsh1			lsh2			lsh3			lsh4			llmal			lmmal			lcal			ltoe			lmt5			SBIKE			LBIKE			RBIKE			
		X1	Y1	Z1	X2	Y2	Z2	X3	Y3	Z3	X4	Y4	Z4	X5	Y5	Z5	X6	Y6	Z6	X7	Y7	Z7	X8	Y8	Z8	X9	Y9	Z9	X10	Y10	Z10	X11	Y11	Z11	X12	Y12	Z12	X13	Y13	Z13	X14	Y14	Z14	X15	Y15	Z15	X16	Y16	Z16	X17	Y17	Z17	X18	Y18	Z18	X19	Y19	Z19	X20	Y20	Z20	X21	Y21	Z21	X22	Y22	Z22	X23	Y23	Z23	X24	Y24	Z24	X25	Y25	Z25	X26	Y26	Z26	X27	Y27	Z27	X28	Y28	Z28	X29	Y29	Z29	X30	Y30	Z30	X31	Y31	Z31	X32	Y32	Z32	X33	Y33	Z33	X34	Y34	Z34	X35	Y35	Z35	X36	Y36	Z36	X37	Y37	Z37	X38	Y38	Z38	X39	Y39	Z39	X40	Y40	Z40	X41	Y41	Z41	X42	Y42	Z42	X43	Y43	Z43	X44	Y44	Z44	X45	Y45	Z45	X46	Y46	Z46	X47	Y47	Z47	X48	Y48	Z48	X49	Y49	Z49	X50	Y50	Z50	
0	0.0000	541.450366	1432.892209	-142.967301	547.315186	1421.444878	-431.330902	497.387448	1477.067857	-296.490264	521.642802	1326.670569	-288.674991	506.621888	1121.859016	-31.846918	700.934636	915.010404	-115.141782	514.291727	1138.213510	-546.993183	696.072397	911.720110	-481.301493	-43.985175	1184.901709	-293.528703	119.703346	1173.799258	-442.486803	119.997771	1168.528819	-131.490695	0.000000	0.000000	-0.000000	154.454407	1108.290273	-173.046970	-7.534000	1222.088592	-248.483434	-11.348821	1227.523236	-324.660178	59.645545	1113.818320	-114.139653	70.717050	1120.108529	-488.238558	135.381171	963.860926	-94.578831	190.086970	895.856783	-105.962779	207.103843	811.659667	-112.085929	219.212410	911.245424	-124.700755	253.352606	675.066621	-139.865654	223.096013	659.138389	-249.855743	186.838859	567.511575	-111.827644	164.605281	479.391799	-124.166583	101.886791	420.117466	-127.510253	190.040688	467.215499	-150.868642	37.405846	282.491961	-133.609311	55.617640	285.550730	-219.814042	-38.962059	261.816350	-172.132124	252.329074	188.993727	-162.130127	182.254089	179.438556	-106.587077	128.605880	1065.313229	-493.507903	213.971737	1055.280308	-500.286549	228.360639	1085.771356	-484.903642	284.710367	1002.045322	-512.979072	423.516419	918.232726	-496.023443	461.983469	902.113678	-388.278491	382.743098	810.274003	-510.656070	359.009060	730.085656	-482.836864	295.856980	668.294730	-473.569464	384.227961	721.955597	-454.101653	214.766231	549.509070	-452.146064	214.758320	556.496041	-364.494825	133.356035	534.509424	-404.530764	430.945559	495.545133	-422.295453	355.459613	462.978217	-480.292810	-185.326992	931.524094	-286.805764	-17.398998	79.412444	-485.854060	-17.551695	79.306432	-84.850135	
1	0.0050	541.298255	1432.863160	-142.994390	547.140016	1421.419508	-431.493430	497.399609	1477.045530	-296.653497	521.547025	1326.566375	-288.734757	506.571952	1121.855623	-31.872398	700.892850	915.021039	-115.140649	514.093866	1138.182412	-547.045591	696.049238	911.806786	-481.519795	-44.001063	1184.905664	-293.588864	119.673454	1173.805707	-442.561269	119.948706	1168.537598	-131.500550	0.000000	0.000000	-0.000000	154.391842	1108.338548	-173.006299	-7.554101	1222.078860	-248.544722	-11.379042	1227.502243	-324.714664	59.600143	1113.825558	-114.164328	70.690872	1120.051988	-488.304046	135.379832	963.886672	-94.584198	190.083403	895.921353	-105.999583	207.156776	811.706275	-112.083030	219.241383	911.297922	-124.718393	253.401941	675.107036	-139.855848	223.267838	659.117636	-249.614315	186.861993	567.617013	-111.839062	164.633166	479.498806	-124.170163	101.837533	420.202265	-127.510907	190.065557	467.300789	-150.912444	37.367220	282.635524	-133.606472	55.570927	285.666921	-219.838321	-39.019458	261.996445	-172.126744	252.248959	189.038980	-162.125887	182.146441	179.513395	-106.590853	128.593602	1065.254802	-493.522787	213.940970	1055.204500	-500.304958	228.334869	1085.694791	-484.923898	284.683868	1001.984961	-512.951494	423.478789	918.162350	-495.964379	461.943599	902.055728	-388.207619	382.736227	810.219445	-510.632724	359.020481	729.997116	-482.817024	295.892247	668.189241	-473.548211	384.242870	721.878693	-454.065188	214.840873	549.402528	-452.148741	214.791565	556.364462	-364.507513	133.439225	534.354245	-404.532798	431.036973	495.490908	-422.308732	355.561340	462.932249	-480.288887	-185.335818	931.543575	-286.827779	-17.399886	79.443489	-485.852832	-17.534829	79.304994	-84.853822	
2	0.0100	541.147912	1432.852071	-142.992926	546.982445	1421.403969	-431.632888	497.343851	1477.071209	-296.704830	521.412920	1326.477161	-288.788001	506.530750	1121.848354	-31.895624	700.905354	915.012646	-115.143037	513.882905	1138.153047	-547.105390	696.029397	911.894105	-481.753899	-44.046059	1184.877928	-293.618182	119.656327	1173.829249	-442.644617	119.864037	1168.558848	-131.472449	0.000000	0.000000	-0.000000	154.302355	1108.365620	-172.999217	-7.559032	1222.067986	-248.600124	-11.398252	1227.480385	-324.760794	59.544817	1113.842579	-114.187680	70.676817	1119.974715	-488.349831	135.357653	963.925476	-94.585213	190.089933	895.971026	-106.000335	207.194588	811.770747	-112.077098	219.211496	911.379135	-124.701962	253.459441	675.162338	-139.882849	223.321255	659.174422	-249.630795	186.879374	567.678158	-111.835419	164.614257	479.572619	-124.189072	101.807169	420.305523	-127.514207	190.048326	467.361560	-150.895649	37.283675	282.754774	-133.611961	55.504197	285.765651	-219.846964	-39.086587	262.133433	-172.122576	252.145808	189.066326	-162.140556	182.035815	179.559290	-106.596839	128.568967	1065.203786	-493.522045	213.916433	1055.149125	-500.310665	228.313552	1085.644411	-484.912149	284.663894	1001.933771	-512.927378	423.452910	918.121016	-495.924342	461.917856	902.008054	-388.167043	382.728792	810.152930	-510.595278	359.030505	729.930916	-482.787916	295.926262	668.100071	-473.502468	384.250433	721.809179	-454.051107	214.930909	549.257445	-452.139816	214.835339	556.237739	-364.513127	133.520040	534.196502	-404.525812	431.130847	495.455750	-422.313423	355.662556	462.880294	-480.299037	-185.338961	931.549048	-286.824706	-17.399244	79.435401	-485.846636	-17.552189	79.302507	-84.876655	
3	0.0150	541.040323	1433.115646	-142.617300	546.818511	1421.390523	-431.725407	497.045231	1476.988018	-296.180774	521.317228	1326.357927	-288.840575	506.528433	1121.840261	-31.889214	700.778585	914.566751	-115.582986	513.755587	1138.059818	-547.121133	695.964122	911.953344	-481.983746	-44.380436	1184.801558	-293.769663	119.600554	1173.837615	-442.685366	120.038733	1168.502914	-131.419693	0.000000	0.000000	-0.000000	154.216828	1108.390121	-173.010981	-7.425331	1221.538944	-248.471733	-11.444777	1227.477813	-324.779595	59.497207	1113.848720	-114.193978	70.667984	1119.929143	-488.416591	135.366077	963.981714	-94.752029	190.612798	895.629886	-105.727962	207.220052	811.824742	-112.074117	219.224822	911.409219	-124.738935	253.510046	675.239417	-139.869831	223.779058	659.017325	-249.488927	186.902434	567.744095	-111.843137	164.532709	479.747703	-125.145836	101.805444	420.403416	-127.528429	191.141506	468.369648	-151.321739	37.204177	282.864654	-133.410136	55.496751	285.843481	-219.843923	-39.077514	262.340082	-172.164833	252.041139	189.126342	-162.135801	181.960799	179.612124	-106.607622	128.701477	1065.414069	-493.817086	213.893715	1055.085174	-500.291395	228.275431	1085.808716	-485.185734	284.447245	1001.879279	-512.990244	423.353892	918.130159	-495.824953	461.873750	901.948200	-388.106188	382.723173	810.091054	-510.553276	359.085766	729.850264	-482.876379	295.887249	667.979266	-473.549250	384.334016	721.768997	-454.248643	215.038591	549.022413	-451.897175	214.795843	556.124149	-364.139696	133.593894	534.027053	-404.526951	431.236155	495.404045	-422.316308	355.748000	462.813217	-480.312700	-185.382934	931.534398	-287.075476	-17.406522	79.423006	-485.849307	-17.548796	79.313096	-84.870997	
